<svg width="162" height="22" fill="none" xmlns="http://www.w3.org/2000/svg"><path d="M16.207 10.8633h.8438V21h-.8438V10.8633zm3.375 0h.8438V21h-.8438V10.8633zm-1.6875 0h.8438V21h-.8438V10.8633zm-2.5312 0V21c-1.4844.5625-3.0235.8438-4.6172.8438-1.38282 0-2.70704-.254-3.97266-.7618-1.26563-.5078-2.37891-1.2109-3.33985-2.1093-.96093-.9063-1.73047-2.0235-2.30859-3.3516-.570312-1.3359-.855469-2.7773-.855469-4.3242 0-1.42971.277344-2.79299.832029-4.08987.5625-1.30469 1.3125-2.42578 2.25-3.36328.94532-.94531 2.06641-1.69531 3.36328-2.25C8.01953 1.03125 9.38672.75 10.8164.75c1.7813 0 3.4375.41406 4.9688 1.24219 1.5312.82812 2.7812 1.95312 3.75 3.375l-.7032.45703c-.8906-1.30469-2.0429-2.33594-3.457-3.09375-1.4062-.75781-2.9258-1.13672-4.5586-1.13672-1.31249 0-2.57031.25781-3.77343.77344-1.19531.50781-2.22656 1.19531-3.09375 2.0625-.86719.86719-1.5586 1.90234-2.07422 3.10547-.50781 1.19531-.76172 2.44922-.76172 3.76174 0 1.414.26172 2.7343.78516 3.9609.53125 1.2266 1.23437 2.2539 2.10937 3.082.88281.8282 1.90625 1.4805 3.07031 1.9571 1.16407.4687 2.375.7031 3.63278.7031 1.3203 0 2.5899-.207 3.8086-.6211v-.8086c-1.164.3906-2.3867.5859-3.6679.5859-.92972 0-1.83598-.1289-2.71879-.3867-.875-.2656-1.6875-.6523-2.4375-1.1601-.74219-.5156-1.39453-1.125-1.95703-1.8282-.55469-.7109-.99219-1.5351-1.3125-2.4726-.3125-.9453-.46875-1.9492-.46875-3.0117 0-1.60159.39453-3.08206 1.18359-4.44143.79688-1.35938 1.875-2.4336 3.23438-3.22266 1.35938-.79687 2.83984-1.19531 4.4414-1.19531 1.5 0 2.8945.35156 4.1836 1.05469 1.2891.69531 2.3398 1.64062 3.1523 2.83593l-.7031.45704c-.7344-1.07813-1.6875-1.92969-2.8594-2.55469-1.164-.63281-2.4218-.94922-3.7734-.94922-1.08593 0-2.12499.21094-3.11718.63281-.99219.42188-1.84766.99219-2.56641 1.71094-.71093.71094-1.27734 1.5625-1.69922 2.55469-.42187.99219-.63281 2.03121-.63281 3.11721 0 .9765.14063 1.8945.42188 2.7539.28906.8515.68359 1.5976 1.18359 2.2383.50781.6328 1.09766 1.1797 1.76953 1.6406.67188.4531 1.40234.7969 2.19141 1.0312.79687.2344 1.61328.3516 2.44921.3516 1.2969 0 2.5313-.2187 3.7031-.6563v-.8437c-1.1562.4453-2.3633.668-3.6211.668-.95309 0-1.86324-.1602-2.73043-.4805-.86719-.3281-1.64063-.7891-2.32031-1.3828-.67188-.5938-1.20704-1.3516-1.60547-2.2734-.39844-.9219-.59766-1.9376-.59766-3.0469 0-1.2969.32031-2.49612.96094-3.59768.64062-1.10156 1.51172-1.97266 2.61328-2.61328C8.32031 4.44531 9.51953 4.125 10.8164 4.125c1.2109 0 2.3359.28125 3.375.84375 1.0469.5625 1.8984 1.32812 2.5547 2.29687l-.7031.45704c-.5782-.84375-1.3282-1.51172-2.25-2.00391-.9141-.5-1.9063-.75-2.9766-.75-1.14843 0-2.20702.28516-3.17578.85547-.96874.5625-1.73828 1.32812-2.30859 2.29687-.5625.96875-.84375 2.02731-.84375 3.17581 0 .7969.11328 1.539.33984 2.2265.22657.6875.53907 1.2813.9375 1.7813.39844.5.86329.9258 1.39454 1.2773.53906.3516 1.11718.6172 1.73437.7969.61719.1719 1.25777.2578 1.92187.2578 1.3203 0 2.5547-.2617 3.7031-.7851v-.8086c-1.1093.4922-2.3086.7382-3.5976.7382-.7422 0-1.44143-.1132-2.09768-.3398s-1.25-.5586-1.78125-.9961c-.52344-.4375-.94141-1.0117-1.25391-1.7226-.30468-.7188-.45703-1.5274-.45703-2.4258 0-.7422.14453-1.44924.43359-2.12112.28907-.67969.67969-1.26562 1.17188-1.75781.49219-.49219 1.07422-.88281 1.74609-1.17188.67969-.28906 1.39061-.43359 2.13281-.43359.9297 0 1.793.21875 2.5898.65625.7969.42969 1.4454 1.01563 1.9454 1.75781l-.6914.45703c-.4219-.625-.9727-1.11718-1.6524-1.47656-.6719-.36719-1.4023-.55078-2.1914-.55078-1.28124 0-2.37499.45313-3.28124 1.35937-.90625.90626-1.35938 1.99998-1.35938 3.28128 0 .789.12891 1.4883.38672 2.0976.25781.6016.60938 1.086 1.05469 1.4532.45312.3593.95312.6328 1.5.8203.55469.1797 1.14841.2695 1.78121.2695 1.2969 0 2.5039-.2695 3.6211-.8086v-4.2656h.8438zM37.8164 4.125h.8438l-5.3086 11.1797V21h-.8438v-5.6953L37.8164 4.125zm-1.6875 0h.8438l-5.3086 11.1797V21h-.8438v-5.6953L36.1289 4.125zm-1.6875 0h.8438l-5.3086 11.1797V21h-.8438v-5.6953L34.4414 4.125zm-1.6875 0h.8438l-5.3086 11.1797V21h-.8438v-5.6953L21.7852 4.125h.8437l5.2266 10.3242L32.7539 4.125zm-9.2695 0h.8437l4.1836 7.957-.4219.9258-4.6054-8.8828zm1.6875 0h.8554l3.3282 6.1055-.4336.9257-3.75-7.0312zm1.7109 0h.8438l2.4726 4.26562-.4219.92579L26.8828 4.125zm25.1953 8.5547c0-1-.3086-1.7735-.9258-2.3203-.6171-.5469-1.4335-.82034-2.4492-.82034-.8593 0-1.5976.29688-2.2148.89064-.6172.5937-.9258 1.3047-.9258 2.1328 0 .4687.0625.8906.1875 1.2656.125.3672.293.6758.5039.9258.2188.2422.4766.4453.7734.6094.2969.1562.6055.2695.9258.3398.3281.0703.6758.1055 1.043.1055.8906 0 1.7031-.2188 2.4375-.6563v.8438c-.7578.3984-1.5742.5977-2.4492.5977-.5625 0-1.0938-.0743-1.5938-.2227-.4922-.1563-.9414-.3867-1.3476-.6914-.4063-.3125-.7305-.7344-.9727-1.2656-.2344-.5391-.3515-1.1563-.3515-1.8516 0-1.0781.3789-1.9922 1.1367-2.74219.7578-.75 1.707-1.125 2.8476-1.125 1.2578 0 2.2735.35547 3.0469 1.06641.7812.70308 1.1719 1.67578 1.1719 2.91798V21h-.8438v-8.3203zm2.5313 0V21h-.8438v-8.3203c0-1.4766-.4726-2.6485-1.4179-3.51564-.9454-.875-2.1602-1.3125-3.6446-1.3125-1.375 0-2.5234.45703-3.4453 1.3711-.9219.91404-1.3828 2.02734-1.3828 3.33984 0 .7969.1367 1.5117.4102 2.1445.2812.6328.6601 1.1407 1.1367 1.5235.4765.3828 1.0078.6757 1.5937.8789.5938.1953 1.2188.2929 1.875.2929.8906 0 1.7383-.207 2.543-.6211v.8907c-.8438.3515-1.6953.5273-2.5547.5273-.7734 0-1.5078-.1172-2.2031-.3515-.6953-.2422-1.3164-.5899-1.8633-1.043-.5469-.4609-.9805-1.0547-1.3008-1.7813-.3203-.7343-.4805-1.5546-.4805-2.4609 0-1.5391.543-2.84766 1.629-3.92578 1.0937-1.08594 2.4414-1.62891 4.0429-1.62891 1.125 0 2.1328.23047 3.0235.69141.8906.45312 1.5937 1.11328 2.1093 1.98047.5157.86721.7735 1.86721.7735 3.00001zm1.6875 0V21h-.8438v-8.3203c0-1.2891-.2969-2.4297-.8906-3.42189-.5859-1-1.3906-1.76562-2.4141-2.29687-1.0234-.53125-2.1718-.79688-3.4453-.79688-1.2109 0-2.3164.28907-3.3164.86719-1 .57031-1.7851 1.34375-2.3555 2.32031-.5624.97654-.8437 2.04684-.8437 3.21094 0 1 .1836 1.9141.5508 2.7422.3672.8203.8594 1.4961 1.4765 2.0273.625.5313 1.3321.9453 2.1211 1.2422.7969.2891 1.6289.4336 2.4961.4336.8828 0 1.75-.1836 2.6016-.5508v.8555c-.8906.3359-1.7656.5039-2.625.5039-1.3516 0-2.5938-.3047-3.7266-.9141-1.1328-.6093-2.039-1.4726-2.7187-2.5898s-1.0195-2.3672-1.0195-3.75c0-.9844.1874-1.9219.5624-2.8125.3829-.89062.8985-1.66016 1.5469-2.30859.6485-.64844 1.4297-1.16407 2.3438-1.54688.914-.38281 1.8828-.57422 2.9062-.57422 1.4297 0 2.7188.30469 3.8672.91407 1.1563.60937 2.0664 1.47656 2.7305 2.60156.664 1.125.9961 2.40626.9961 3.84376zm1.6875 0V21h-.8438v-8.3203c0-1.5938-.3711-3.01564-1.1133-4.26564-.7421-1.25781-1.7539-2.22656-3.0351-2.90625-1.2813-.6875-2.711-1.03125-4.2891-1.03125-1.5156 0-2.9023.36328-4.1601 1.08985-1.2578.72656-2.2461 1.71093-2.9649 2.95312C40.8594 9.75391 40.5 11.1016 40.5 12.5625c0 .9609.1523 1.875.457 2.7422.3125.8594.7344 1.6133 1.2657 2.2617.539.6406 1.1562 1.1953 1.8515 1.6641.7031.4687 1.457.8242 2.2617 1.0664.8125.2422 1.6368.3633 2.4727.3633.9219 0 1.7969-.1758 2.625-.5274V21c-.8672.3047-1.7578.457-2.6719.457-.9453 0-1.8672-.1328-2.7656-.3984-.8906-.2656-1.7188-.6563-2.4844-1.1719-.7578-.5234-1.4258-1.1367-2.0039-1.8398-.5781-.711-1.0312-1.5391-1.3594-2.4844-.3281-.9453-.4922-1.9453-.4922-3 0-1.2109.2266-2.3633.6797-3.45703.461-1.10156 1.086-2.05078 1.875-2.84766.7969-.80469 1.7579-1.4414 2.8829-1.91015 1.1328-.47657 2.3359-.71485 3.6093-.71485 1.2969 0 2.5157.21875 3.6563.65625s2.125 1.04688 2.9531 1.82813c.8281.77343 1.4805 1.72656 1.957 2.85937.4766 1.13284.7149 2.36724.7149 3.70314zm15.3984 1.5117l-.8437-1.5352V4.125h.8437v10.0664zm1.6875 2.918l-.8437-1.4297V4.125h.8437v12.9844zm-11.625-6.1758l.8438 1.5352V21h-.8438V10.9336zm-1.6875-3.03516l.8438 1.54687V21h-.8438V7.89844zm.293-3.77344h.9844L72.8086 21h-.9844L62.0508 4.125zm1.9922 0h.9961L74.8008 21H73.793l-9.75-16.875zm1.9804 0h.9844l8.9063 15.4102V4.125h.8437V21h-.9961L66.0234 4.125zm-5.1093 1.45312V21h-.8438V4.125h1.0078L70.8164 21h-.9726L60.9141 5.57812zm41.3439 8.66018c0-.3047-.094-.5078-.281-.6094-.18-.1016-.446-.1523-.797-.1523h-5.4378v-.8438h5.4378c1.281 0 1.922.5352 1.922 1.6055 0 .6015-.176 1.0351-.528 1.3008-.351.2656-.816.3984-1.394.3984h-5.4378v-.8437h5.4378c.718 0 1.078-.2852 1.078-.8555zM95.2734 21h-.8437V6.65625h6.7503c.531 0 .984.16406 1.359.49219.375.32031.563.72265.563 1.20703 0 .64062-.176 1.10547-.528 1.39453-.351.2812-.816.4219-1.394.4219h-5.4378v-.84378h5.4378c.718 0 1.078-.32421 1.078-.97265 0-.26563-.102-.47266-.305-.62109-.203-.15625-.461-.23438-.773-.23438h-5.9066V21zm.4688-9.9844h5.4378c.773 0 1.425-.2304 1.957-.6914.539-.46873.808-1.12498.808-1.96873 0-.67969-.281-1.27344-.843-1.78125-.555-.50781-1.196-.76172-1.922-.76172h-7.5941V21h-.8437V4.96875h8.4378c.961 0 1.8.33984 2.519 1.01953.727.67188 1.09 1.46094 1.09 2.36719 0 .71094-.168 1.33203-.504 1.86333-.328.5312-.773.9414-1.336 1.2304 1.227.4375 1.84 1.3281 1.84 2.6719 0 1.0625-.351 1.9141-1.055 2.5547-.703.6328-1.554.9492-2.554.9492h-5.4378v-.8438h5.4378c.773 0 1.425-.2304 1.957-.6914.539-.4687.808-1.125.808-1.9687 0-.5703-.203-1.0742-.609-1.5117-.406-.4375-1.004-.6914-1.793-.7617-.078.0078-.199.0117-.363.0117h-5.4378v-.8438zm10.7348-2.66013c0 1.09375-.387 2.08203-1.161 2.96483.774.8594 1.161 1.793 1.161 2.8008 0 .9766-.247 1.8672-.739 2.6719-.484.7968-1.133 1.4179-1.945 1.8632-.805.4376-1.676.6563-2.613.6563h-5.4378v-.8437h5.4378c1.218 0 2.265-.4063 3.14-1.2188.875-.8203 1.313-1.8633 1.313-3.1289 0-.4531-.117-.9531-.352-1.5-.226-.5547-.543-.9766-.949-1.2656.867-.8125 1.301-1.81253 1.301-3.00003 0-1.14063-.445-2.12891-1.336-2.96485-.891-.84374-1.93-1.26562-3.117-1.26562h-9.2816V21h-.8437V3.28125H101.18c.929 0 1.8.23047 2.613.69141.82.45312 1.473 1.07422 1.957 1.86328.484.78125.727 1.62109.727 2.51953zm-.2 3.01173c.696-.9297 1.043-1.93361 1.043-3.01173 0-1.05469-.281-2.03516-.843-2.94141-.555-.91406-1.305-1.63672-2.25-2.16797-.946-.53906-1.961-.80859-3.047-.80859H90.2109V21h-.8437V1.59375H101.18c1.234 0 2.386.30469 3.457.91406 1.078.60938 1.933 1.4375 2.566 2.48438.641 1.03906.961 2.16015.961 3.36328 0 1.14844-.324 2.15623-.973 3.02343.649.8984.973 1.8125.973 2.7422 0 1.0469-.187 2.0078-.562 2.8828-.375.8672-.883 1.5899-1.524 2.168-.633.5781-1.371 1.0273-2.215 1.3476-.843.3203-1.738.4805-2.683.4805h-5.4378v-.8438h5.4378c.82 0 1.605-.1523 2.355-.457.75-.3125 1.403-.7344 1.957-1.2656.555-.5313.996-1.1719 1.324-1.9219.336-.75.504-1.5469.504-2.3906 0-.375-.09-.8242-.269-1.3477-.172-.5312-.43-1-.774-1.4062zm14.86 2.1562V4.125h.843v9.3984c0 .8907-.343 1.6563-1.031 2.2969-.679.6406-1.5.9609-2.461.9609-.961 0-1.785-.3203-2.472-.9609-.68-.6406-1.02-1.4062-1.02-2.2969V4.125h.844v9.3984c0 .6641.258 1.2344.773 1.711.524.4687 1.149.7031 1.875.7031.727 0 1.348-.2344 1.864-.7031.523-.4766.785-1.0469.785-1.711zm1.687 0V4.125h.844v9.3984c0 1.3672-.508 2.5352-1.523 3.5039-1.016.961-2.235 1.4415-3.657 1.4415-1.422 0-2.64-.4805-3.656-1.4415-1.016-.9687-1.523-2.1367-1.523-3.5039V4.125h.843v9.3984c0 1.1328.422 2.1016 1.266 2.9063.852.7969 1.875 1.1953 3.07 1.1953 1.188 0 2.207-.3984 3.059-1.1953.851-.8047 1.277-1.7735 1.277-2.9063zm1.688 0V4.125h.843v9.3984c0 1.1954-.308 2.3047-.925 3.3282-.618 1.0156-1.453 1.8203-2.508 2.414-1.055.5938-2.199.8906-3.434.8906-1.234 0-2.379-.2968-3.433-.8906-1.055-.5937-1.891-1.3984-2.508-2.414-.617-1.0235-.926-2.1328-.926-3.3282V4.125h.844v9.3984c0 1.0391.269 2.0039.808 2.8946.539.8906 1.27 1.5976 2.192 2.1211.93.5156 1.937.7734 3.023.7734s2.09-.2578 3.012-.7734c.93-.5235 1.664-1.2305 2.203-2.1211.539-.8907.809-1.8555.809-2.8946zm1.687 0V4.125h.844v9.3984c0 1.125-.227 2.2032-.68 3.2344-.453 1.0234-1.062 1.9063-1.828 2.6484-.765.7422-1.676 1.3321-2.73 1.7696-1.055.4453-2.16.668-3.317.668-1.156 0-2.261-.2227-3.316-.668-1.055-.4375-1.965-1.0274-2.731-1.7696-.765-.7421-1.375-1.625-1.828-2.6484-.453-1.0312-.679-2.1094-.679-3.2344V4.125h.843v9.3984c0 1.3438.344 2.5899 1.032 3.7383.695 1.1485 1.632 2.0586 2.812 2.7305 1.188.6719 2.477 1.0078 3.867 1.0078 1.391 0 2.676-.3359 3.856-1.0078 1.187-.6719 2.125-1.582 2.812-2.7305.696-1.1484 1.043-2.3945 1.043-3.7383zm18.141 3.2578v.8438h-6.551l.539-.8438h6.012zm0 1.6876v.8437h-7.594l.527-.8437h7.067zm0 1.6874V21h-8.531l.515-.8438h8.016zM129.047 8.35547v-.84375h6.562l-.527.84375h-6.035zm0-1.6875v-.84375h7.547l-.539.84375h-7.008zm0-1.6875v-.84375h8.496l-.563.84375h-7.933zM134.988 21h-1.043l10.5-16.86328v1.42969L134.988 21zm-2.086 0h-1.031l10.524-16.86328h1.019L132.902 21zm-2.086 0h-1.031l10.5-16.86328h1.043L130.816 21zm-2.074 0v-1.7109l9.469-15.15238h1.043L128.742 21zm32.754-4.2188v.8438h-6.551l.539-.8438h6.012zm0 1.6876v.8437h-7.594l.528-.8437h7.066zm0 1.6874V21h-8.531l.515-.8438h8.016zM146.203 8.35547v-.84375h6.563l-.528.84375h-6.035zm0-1.6875v-.84375h7.547l-.539.84375h-7.008zm0-1.6875v-.84375h8.496l-.562.84375h-7.934zM152.145 21h-1.043l10.5-16.86328v1.42969L152.145 21zm-2.086 0h-1.032l10.524-16.86328h1.019L150.059 21zm-2.086 0h-1.032l10.5-16.86328h1.043L147.973 21zm-2.075 0v-1.7109l9.469-15.15238h1.043L145.898 21z" fill="url(#paint0_linear)"/><defs><linearGradient id="paint0_linear" x1="-1" y1="23" x2="163" y2="23" gradientUnits="userSpaceOnUse"><stop stop-color="#FF8A00"/><stop offset="1" stop-color="#E52E71"/></linearGradient></defs></svg>